<svg width="32" height="32" viewBox="0 0 32 32" fill="none" xmlns="http://www.w3.org/2000/svg">
<path d="M9.11668 13.9946C9.23408 10.1703 9.29278 8.25814 10.4962 7.06121C11.6996 5.8643 13.5777 5.85003 17.3341 5.82151C21.0904 5.79298 22.0339 4.93454 23.1644 6.11374C25.0527 7.81917 25.1708 10.0493 25.0534 13.8736L24.8873 19.2819C24.7699 23.1062 24.7112 25.0184 23.5078 26.2153C22.3044 27.4122 20.4262 27.4265 16.6699 27.455C12.9136 27.4835 10.7477 27.3413 8.86189 25.681C7.73143 24.5018 8.83325 23.2272 8.95065 19.403L9.11668 13.9946Z" fill="black"/>
<path d="M7.5663 12.7229C7.6837 8.89862 7.7424 6.98647 8.9458 5.78955C10.1492 4.59263 12.0274 4.57837 15.7837 4.54985C19.54 4.52132 21.4181 4.50706 22.5486 5.68625C23.6791 6.86545 23.6204 8.77759 23.503 12.6019L23.3369 18.0103C23.2195 21.8346 23.1608 23.7467 21.9574 24.9436C20.754 26.1405 18.8759 26.1548 15.1196 26.1833C11.3633 26.2119 9.4851 26.2261 8.35463 25.0469C7.22417 23.8677 7.28287 21.9556 7.40027 18.1313L7.5663 12.7229Z" fill="#D2161E"/>
<path fill-rule="evenodd" clip-rule="evenodd" d="M19.2487 4.58416C18.3143 4.53056 17.179 4.53918 15.7851 4.54977C12.0288 4.57829 10.1506 4.59256 8.94721 5.78947C7.74381 6.9864 7.68511 8.89854 7.56771 12.7228L7.40168 18.1312C7.3408 20.1145 7.2957 21.5834 7.42406 22.7027C7.54321 23.7416 7.81183 24.4792 8.35604 25.0468C8.41212 25.1053 8.47004 25.1609 8.52993 25.2137C8.60841 25.3745 8.71721 25.5285 8.8633 25.6809C10.0116 26.6919 11.2638 27.14 12.9157 27.3295C13.9766 27.4511 15.2023 27.4661 16.6714 27.4549C20.4277 27.4264 22.3058 27.4121 23.5092 26.2152C24.7126 25.0183 24.7713 23.1061 24.8887 19.2818L25.0548 13.8735C25.1261 11.5506 25.1105 9.81585 24.6641 8.42961C24.3756 7.53362 23.9071 6.7832 23.1658 6.11366C22.9674 5.90667 22.7747 5.76246 22.5715 5.66553C22.5468 5.65375 22.522 5.64267 22.497 5.63225C21.7891 4.9314 20.7934 4.67276 19.2487 4.58416ZM23.1467 4.67668C22.3652 3.98028 21.3995 3.67573 20.2992 3.53288C19.1408 3.38248 17.6672 3.39371 15.8609 3.40746L15.694 3.40873C13.8859 3.42242 12.4128 3.43358 11.2462 3.60141C10.0255 3.77704 8.98388 4.14275 8.1421 4.97999C7.30297 5.81459 6.92315 6.8586 6.72331 8.08767C6.53149 9.26744 6.48558 10.7636 6.42901 12.6077L6.258 18.1782C6.20141 20.0206 6.15544 21.5173 6.27505 22.6962C6.39934 23.9213 6.71658 24.9865 7.53189 25.8369C7.56013 25.8664 7.58864 25.8953 7.61742 25.9235C7.73204 26.1147 7.87222 26.2969 8.03915 26.471C8.06143 26.4942 8.08469 26.5165 8.10886 26.5378C10.3644 28.5236 12.974 28.6247 16.68 28.5966L16.7625 28.596C18.5705 28.5823 20.0436 28.5711 21.2102 28.4033C22.4309 28.2276 23.4726 27.8619 24.3143 27.0247C25.1535 26.1901 25.5333 25.1461 25.7331 23.917C25.925 22.7372 25.9709 21.241 26.0274 19.3969L26.1959 13.9085C26.3104 10.1809 26.2652 7.39765 23.9603 5.29298C23.7119 5.03905 23.4448 4.83152 23.1467 4.67668Z" fill="white"/>
<path d="M8.77355 13.7178C8.89473 9.86469 8.95532 7.93811 10.179 6.73159C11.4026 5.52507 13.3114 5.50978 17.129 5.47921C20.9467 5.44864 21.911 4.67418 23.0593 5.8617C24.9979 7.12209 25.0916 9.73498 24.9704 13.5881L24.799 19.0373C24.6778 22.8905 24.6172 24.817 23.3936 26.0236C22.17 27.2301 20.2612 27.2454 16.4435 27.2759C12.6259 27.3065 9.94476 27.5555 8.355 25.1818C7.20667 23.9943 8.481 23.0202 8.60218 19.167L8.77355 13.7178Z" fill="#C81127"/>
<path fill-rule="evenodd" clip-rule="evenodd" d="M9.92366 6.47211C10.6121 5.79331 11.4814 5.46814 12.63 5.30377C13.7617 5.14185 15.2133 5.13022 17.098 5.11514L17.1265 5.11491C18.4184 5.10456 19.3505 5.01066 20.1024 4.93491C20.461 4.89878 20.7787 4.86678 21.0748 4.84994C21.5196 4.82466 21.9177 4.83544 22.2906 4.94783C22.6611 5.05954 22.9802 5.26318 23.2925 5.5788C24.3494 6.28109 24.8859 7.34603 25.1451 8.68313C25.4046 10.0215 25.3951 11.6775 25.3347 13.5994L25.1624 19.0765C25.1026 20.9794 25.0565 22.444 24.8694 23.5818C24.6796 24.7358 24.3376 25.6043 23.6496 26.2826C22.9612 26.9615 22.0919 27.2866 20.9433 27.451C19.8116 27.6129 18.36 27.6245 16.4753 27.6396L16.4468 27.6399C16.1394 27.6423 15.8376 27.6463 15.5417 27.6502C14.0248 27.6702 12.664 27.6881 11.5027 27.4892C10.0952 27.248 8.93311 26.6824 8.07073 25.4108C7.7516 25.073 7.58135 24.726 7.53123 24.3281C7.48257 23.9419 7.5518 23.5341 7.6471 23.0964C7.67673 22.9603 7.70979 22.8175 7.74474 22.6667C7.93771 21.8337 8.18841 20.7515 8.2386 19.1554L8.41086 13.6782C8.4707 11.7753 8.51676 10.3108 8.70391 9.17293C8.89372 8.01893 9.23568 7.15047 9.92366 6.47211ZM8.35537 25.1816C9.81466 27.3605 12.1936 27.3295 15.527 27.2861C15.825 27.2822 16.1306 27.2783 16.4439 27.2758C20.2615 27.2452 22.1703 27.2299 23.394 26.0234C24.6176 24.8168 24.6782 22.8903 24.7994 19.0371L24.9707 13.5879C25.0919 9.73479 24.9983 7.12189 23.0597 5.8615C22.3043 5.08034 21.6285 5.14815 20.1678 5.29474C19.408 5.37099 18.4358 5.46856 17.1294 5.47902C13.3118 5.50959 11.403 5.52487 10.1793 6.73139C8.95569 7.93791 8.8951 9.86449 8.77392 13.7176L8.60255 19.1668C8.55115 20.801 8.29233 21.9173 8.09888 22.7517C7.83621 23.8846 7.69406 24.4977 8.35537 25.1816Z" fill="black"/>
<path d="M7.58217 12.7806C7.70335 8.92741 7.76394 7.00084 8.98757 5.79431C10.2112 4.58779 12.12 4.57251 15.9376 4.54194C19.7553 4.51137 21.6641 4.49608 22.8124 5.6836C23.9608 6.87113 23.9002 8.79771 23.779 12.6509L23.6076 18.1C23.4864 21.9532 23.4259 23.8798 22.2022 25.0863C20.9786 26.2928 19.0698 26.3081 15.2521 26.3387C11.4345 26.3692 9.52571 26.3845 8.37736 25.197C7.22903 24.0095 7.28962 22.0829 7.4108 18.2297L7.58217 12.7806Z" fill="#D2161E"/>
<path fill-rule="evenodd" clip-rule="evenodd" d="M8.73234 5.53519C9.42077 4.85639 10.2901 4.53122 11.4387 4.36685C12.5703 4.20492 14.022 4.1933 15.9067 4.17821L15.9644 4.17775C17.8485 4.16266 19.3002 4.15103 20.4227 4.29498C21.5613 4.44098 22.4194 4.75314 23.0746 5.43064L22.8128 5.68376C21.6645 4.49624 19.7557 4.51153 15.9381 4.5421C12.1204 4.57267 10.2116 4.58795 8.98799 5.79447C7.76436 7.00099 7.70377 8.92757 7.58259 12.7807L7.41122 18.2299C7.29004 22.0831 7.22945 24.0096 8.37779 25.1972C9.52613 26.3847 11.4349 26.3694 15.2526 26.3388C19.0702 26.3083 20.979 26.293 22.2026 25.0864C23.4263 23.8799 23.4869 21.9534 23.608 18.1002L23.7794 12.651C23.9006 8.79787 23.9612 6.87129 22.8128 5.68376L23.0746 5.43064C23.7292 6.10761 24.0172 6.97979 24.1345 8.13088C24.2502 9.26677 24.2041 10.7315 24.1443 12.6337L23.9711 18.1397C23.9113 20.0425 23.8652 21.5071 23.6781 22.6449C23.4882 23.7989 23.1463 24.6674 22.4583 25.3457C21.7699 26.0245 20.9006 26.3497 19.7519 26.5141C18.6203 26.676 17.1687 26.6876 15.2839 26.7027L15.2262 26.7032C13.3422 26.7183 11.8904 26.7299 10.7679 26.5859C9.62935 26.4399 8.77118 26.1278 8.11603 25.4503C7.46141 24.7733 7.17344 23.9011 7.05619 22.75C6.94048 21.6141 6.98655 20.1495 7.04637 18.2472L7.21953 12.7413C7.27937 10.8384 7.32543 9.37384 7.51258 8.23601C7.70239 7.08201 8.04436 6.21355 8.73234 5.53519Z" fill="black"/>
<path d="M12.3675 14.594L14.0509 16.4793L18.7375 10.9893C19.0922 10.5737 19.7103 10.5086 20.1439 10.8412L20.6107 11.1993C21.0803 11.5595 21.1491 12.241 20.761 12.6878L14.8857 19.4525C14.4661 19.9356 13.7227 19.9557 13.2776 19.496L10.3098 16.4306C9.94521 16.054 9.97896 15.4465 10.3831 15.1126L11.1246 14.4998C11.4969 14.1922 12.0458 14.2338 12.3675 14.594Z" fill="white" stroke="white" stroke-width="0.256791"/>
</svg>
