<svg width="32" height="32" viewBox="0 0 32 32" fill="none" xmlns="http://www.w3.org/2000/svg">
<path d="M5.8137 24.0402C5.90703 19.1983 9.52131 16.0001 11.2637 14.9875C8.78083 12.387 9.30663 7.83321 10.9616 5.82361C12.6166 3.81401 18.0277 1.3851 21.9172 6.2127C24.8963 9.91019 23.2175 14.1373 21.9172 16.0681C25.8615 19.3351 26.4181 23.3022 26.1184 25.5428C26.0259 26.2349 25.5312 26.7865 24.8903 27.0638C17.7084 30.1714 10.362 27.9491 6.85677 25.8869C6.20226 25.5018 5.79907 24.7995 5.8137 24.0402Z" fill="white"/>
<path fill-rule="evenodd" clip-rule="evenodd" d="M13.5249 15.3586C13.3963 15.2776 13.2712 15.1898 13.15 15.0955L14.4131 16.1117C14.5343 16.206 14.6594 16.2938 14.7879 16.3747L13.5249 15.3586Z" fill="#C81127"/>
<path fill-rule="evenodd" clip-rule="evenodd" d="M13.15 15.0955C11.7557 14.0108 10.8674 12.0664 10.9399 9.84188C11.0516 6.41661 13.3654 4.6581 16.1494 4.63906C17.3743 4.63068 18.4862 4.96045 19.3379 5.62421C18.4862 4.96045 16.9783 5.31402 15.7534 5.3224C12.9694 5.34145 12.3147 7.43277 12.203 10.858C12.1304 13.0825 13.0188 15.027 14.4131 16.1117L13.15 15.0955Z" fill="#C81127"/>
<path fill-rule="evenodd" clip-rule="evenodd" d="M19.3379 5.62421C20.4219 6.46898 21.0843 7.85475 21.0218 9.7729C20.9429 12.1908 19.75 14.2933 18.0759 15.3275L19.339 16.3436C21.0131 15.3094 22.206 13.207 22.2849 10.7891C22.2127 7.24273 20.4219 6.46898 19.3379 5.62421Z" fill="#C81127"/>
<path fill-rule="evenodd" clip-rule="evenodd" d="M18.0759 15.3275C18.8703 15.588 19.6083 15.9862 20.2693 16.4982L21.5324 17.5143C20.8714 17.0024 20.1334 16.6042 19.339 16.3436L18.0759 15.3275Z" fill="#C81127"/>
<path fill-rule="evenodd" clip-rule="evenodd" d="M20.2693 16.4982C22.3623 18.1192 23.6833 20.8806 23.5807 24.0237C23.5393 25.293 19.8958 26.3155 15.4414 26.346C11.9669 26.3698 9.08144 24.3546 7.97498 23.4929L8.16343 25.2986C9.26989 26.1602 13.23 27.3859 16.7045 27.3622C21.1588 27.3317 24.8024 26.3091 24.8438 25.0399C24.9463 21.8968 23.6254 19.1354 21.5324 17.5143L20.2693 16.4982Z" fill="#C81127"/>
<path fill-rule="evenodd" clip-rule="evenodd" d="M7.97498 23.4929C7.6629 23.2499 8.19832 23.0333 8.20743 22.754C8.97923 18.5586 10.6577 16.8562 13.5249 15.3586L14.7879 16.3747C11.4054 17.5063 7.7301 20.2794 7.59521 24.415C7.5861 24.6943 7.85136 25.0555 8.16343 25.2986L7.97498 23.4929Z" fill="#C81127"/>
<path fill-rule="evenodd" clip-rule="evenodd" d="M18.0729 15.3269C18.127 15.2935 18.1805 15.259 18.2335 15.2234C18.3053 15.1753 18.3761 15.1251 18.4459 15.073C19.9219 13.9714 20.9459 12.0065 21.0188 9.77236C21.0562 8.62471 20.8341 7.66764 20.4175 6.903C20.1377 6.38963 19.7703 5.96301 19.3349 5.62367C19.4712 5.72987 19.6187 5.83496 19.7725 5.94457C20.0719 6.15801 20.3955 6.38863 20.7076 6.67814C21.5101 7.42252 22.2365 8.55624 22.2819 10.7885C22.2138 12.8747 21.3165 14.726 19.9963 15.859C19.9026 15.9394 19.8068 16.0162 19.709 16.0892C19.7052 16.092 19.7015 16.0948 19.6977 16.0976C19.8053 16.1661 19.9113 16.2374 20.0156 16.3115C20.1003 16.3718 20.1839 16.4338 20.2663 16.4976C20.3411 16.5555 20.4149 16.6149 20.4877 16.6757L21.5294 17.5138C21.8363 17.7515 22.1267 18.0138 22.3984 18.2982C23.9793 19.9531 24.9283 22.3572 24.8408 25.0394C24.7994 26.3086 21.1558 27.3312 16.7015 27.3616C13.227 27.3854 9.26691 26.1597 8.16045 25.298C8.09018 25.2433 8.02229 25.1826 7.95937 25.1182C7.74283 24.8965 7.58516 24.6309 7.59222 24.4145C7.60027 24.1678 7.62091 23.926 7.65333 23.689C7.69781 23.3641 7.76445 23.0483 7.85116 22.742C7.85596 22.725 7.86082 22.7081 7.86574 22.6912C8.04657 22.0703 8.30992 21.4882 8.63812 20.9463C8.4703 21.4927 8.32611 22.0921 8.20444 22.7535C8.2008 22.8652 8.11291 22.9669 8.02876 23.0643C7.90257 23.2103 7.78477 23.3466 7.972 23.4924C7.99462 23.51 8.018 23.5281 8.0421 23.5467C8.08272 23.578 8.12541 23.6105 8.17015 23.6442C9.3971 24.5692 12.1547 26.3679 15.4384 26.3455C19.8928 26.315 23.5364 25.2924 23.5778 24.0232C23.6453 21.9522 23.0949 20.0469 22.1127 18.5243C21.908 18.2069 21.6845 17.9062 21.444 17.624L21.4423 17.622C21.2964 17.451 21.1442 17.2869 20.9862 17.13C20.7465 16.9761 20.4984 16.8363 20.2428 16.7115C20.2084 16.6946 20.1738 16.6781 20.1391 16.6618C20.015 16.6036 19.8891 16.549 19.7615 16.4979C19.6722 16.4621 19.582 16.4281 19.491 16.3959C19.4396 16.3777 19.3879 16.3601 19.336 16.3431L18.0729 15.3269ZM18.426 15.8437C18.273 15.7807 18.1176 15.7232 17.9599 15.6715L17.2187 15.4284L17.8823 15.0184C19.4397 14.0563 20.5809 12.0736 20.6563 9.76054C20.7158 7.93742 20.0892 6.67128 19.112 5.9097C18.7895 5.65838 18.3092 5.577 17.6863 5.58333C17.3815 5.58643 17.0632 5.60969 16.734 5.63381L16.7304 5.63407C16.4071 5.65776 16.0721 5.68231 15.7529 5.68449C15.1018 5.68894 14.6021 5.81425 14.2128 6.03025C13.826 6.24489 13.5254 6.56169 13.2907 6.98743C12.8105 7.85829 12.6182 9.15931 12.5624 10.8693C12.5015 12.7393 13.1515 14.377 14.1861 15.427L15.5292 16.5076L14.8999 16.7181C12.6218 17.4802 10.2695 18.979 8.97011 21.1009C8.81487 21.6136 8.67994 22.1767 8.56483 22.7989C8.54995 22.9642 8.46818 23.0917 8.41255 23.1674C8.38045 23.211 8.34653 23.251 8.31949 23.2824C8.3159 23.2866 8.31244 23.2906 8.30912 23.2945C9.47556 24.1855 12.2018 26.005 15.4359 25.9828C17.6401 25.9678 19.6305 25.7069 21.0639 25.3C21.7829 25.0959 22.3419 24.8605 22.7154 24.6144C23.1026 24.3592 23.2109 24.1478 23.2153 24.0114C23.302 21.3553 22.3361 18.9971 20.7577 17.4144C20.2779 17.11 19.7638 16.8651 19.223 16.6877L18.4817 16.4445L18.8727 16.203L18.426 15.8437ZM9.43078 19.851C9.13797 20.1955 8.87163 20.5607 8.63812 20.9463C8.78178 20.4786 8.94275 20.0497 9.12173 19.654C10.001 17.71 11.3149 16.5674 13.1458 15.5595C13.1499 15.5573 13.1542 15.5549 13.1583 15.5527C13.1966 15.5316 13.2352 15.5106 13.2739 15.4897C13.3461 15.4507 13.419 15.4119 13.4927 15.3733L13.1469 15.095L13.1446 15.0932C13.0246 14.9998 12.9084 14.9 12.7963 14.7942C11.606 13.6714 10.8707 11.8732 10.9369 9.84134C11.0487 6.41607 13.3624 4.65756 16.1464 4.63852C16.732 4.63451 17.2919 4.7078 17.8097 4.85792C18.3751 5.02181 18.8904 5.27725 19.3349 5.62367C18.9256 5.30468 18.3648 5.22065 17.7566 5.22035C17.4166 5.22018 17.0619 5.24617 16.7106 5.27191C16.3826 5.29595 16.0576 5.31976 15.7504 5.32186C12.9664 5.34091 12.3117 7.43223 12.2 10.8575C12.1546 12.2508 12.4861 13.5343 13.0828 14.5655C13.1499 14.6816 13.2205 14.7945 13.2943 14.904L13.2971 14.9082C13.3235 14.9473 13.3503 14.9861 13.3775 15.0243C13.4399 15.1119 13.5044 15.1973 13.5709 15.2802L13.5777 15.2886C13.6932 15.432 13.815 15.5681 13.9422 15.6962L14.7848 16.3741C14.6511 16.4188 14.5171 16.4662 14.3827 16.516C14.3748 16.519 14.3667 16.522 14.3588 16.5249C12.5654 17.1939 10.7354 18.3163 9.43078 19.851ZM12.8403 15.3145C11.3906 14.1373 10.5002 12.1084 10.5745 9.82952C10.6331 8.03342 11.2724 6.64104 12.2933 5.69642C13.3107 4.75494 14.6771 4.28592 16.1439 4.27589C17.434 4.26706 18.6299 4.61444 19.5578 5.33764C19.6747 5.4287 19.8087 5.5241 19.9535 5.62721C20.4176 5.95758 20.9928 6.36712 21.4713 6.96686C22.1208 7.781 22.607 8.94151 22.6444 10.7811L22.6448 10.8004C22.5751 12.9394 21.6692 14.8623 20.3037 16.0722C20.3659 16.1175 20.4274 16.1637 20.4883 16.2109C20.7418 16.4072 20.9842 16.6192 21.2145 16.8458C21.3984 16.9651 21.5775 17.0924 21.7514 17.2271C23.9434 18.9248 25.3093 21.8009 25.2033 25.0512C25.187 25.5494 24.8243 25.9417 24.3775 26.2362C23.917 26.5397 23.2789 26.7999 22.525 27.0139C21.0127 27.4432 18.9542 27.7089 16.7039 27.7243C14.9273 27.7364 13.0361 27.4297 11.4507 27.0126C10.657 26.8037 9.93468 26.5658 9.33688 26.3234C8.74559 26.0836 8.25391 25.8304 7.93764 25.5841C7.75463 25.4416 7.58262 25.2628 7.45456 25.0716C7.33204 24.8886 7.22165 24.652 7.22978 24.4027C7.2738 23.053 7.67353 21.8474 8.30635 20.7917C8.67932 19.5938 9.16833 18.6313 9.78986 17.823C10.5988 16.771 11.6153 16.0024 12.8403 15.3145Z" fill="black"/>
<path d="M11.8035 16.1816C12.5059 15.7367 12.857 15.5142 12.894 15.3216C12.9309 15.129 12.6698 14.7686 12.1476 14.0479C11.3501 12.9472 10.8888 11.4695 10.9419 9.84188C11.0536 6.4166 13.3674 4.6581 16.1514 4.63906C18.9354 4.62001 21.1354 6.34763 21.0237 9.77291C20.9701 11.4156 20.4024 12.9126 19.5189 14.0281C18.9672 14.7246 18.6913 15.0728 18.7225 15.2693C18.7536 15.4658 19.1111 15.7033 19.8261 16.1785C22.1748 17.7391 23.6924 20.6633 23.5828 24.0237C23.5414 25.293 19.8978 26.3155 15.4434 26.346C10.989 26.3765 7.4105 25.4033 7.45189 24.1341C7.56271 20.7366 9.30845 17.7624 11.8035 16.1816Z" fill="#D2161E"/>
<path fill-rule="evenodd" clip-rule="evenodd" d="M11.8538 14.2601C11.0056 13.0894 10.5238 11.5314 10.5793 9.82952C10.6379 8.03342 11.2772 6.64104 12.2981 5.69642C13.3156 4.75494 14.682 4.28592 16.1488 4.27589C17.6147 4.26586 18.9596 4.71619 19.9258 5.65355C20.896 6.59478 21.4446 7.98867 21.386 9.78419C21.33 11.5017 20.7364 13.0742 19.803 14.2527C19.5231 14.6061 19.3269 14.8541 19.2026 15.0384C19.1509 15.1151 19.1187 15.1704 19.0998 15.2097C19.1283 15.2395 19.1732 15.2799 19.2416 15.3336C19.4102 15.4659 19.6636 15.6346 20.0267 15.8759C22.4892 17.5122 24.0584 20.5605 23.945 24.035C23.9288 24.5333 23.5661 24.9256 23.1193 25.22C22.6587 25.5236 22.0207 25.7837 21.2668 25.9977C19.7544 26.427 17.6959 26.6927 15.4457 26.7081C13.1958 26.7235 11.1525 26.4859 9.6653 26.0765C8.92442 25.8726 8.29937 25.62 7.85379 25.3196C7.4195 25.0267 7.07277 24.6284 7.0893 24.1217C7.20384 20.6099 9.00807 17.5228 11.6093 15.8748C11.9662 15.6487 12.2145 15.491 12.3804 15.3664C12.447 15.3164 12.4908 15.2786 12.5189 15.2506C12.5013 15.2101 12.471 15.1526 12.4216 15.0726C12.3046 14.8827 12.1186 14.6257 11.8538 14.2601ZM12.8938 15.3211C12.8569 15.5136 12.5057 15.7361 11.8034 16.1811C9.30829 17.7619 7.56256 20.736 7.45174 24.1336C7.41034 25.4028 10.9888 26.3759 15.4432 26.3455C19.8976 26.315 23.5412 25.2924 23.5826 24.0232C23.6922 20.6628 22.1746 17.7386 19.826 16.1779C19.111 15.7028 18.7534 15.4652 18.7223 15.2688C18.6912 15.0723 18.967 14.724 19.5187 14.0275C20.4022 12.9121 20.97 11.415 21.0236 9.77237C21.1353 6.34709 18.9352 4.61947 16.1512 4.63852C13.3672 4.65756 11.0535 6.41607 10.9418 9.84134C10.8887 11.4689 11.3499 12.9466 12.1474 14.0473C12.6697 14.7681 12.9308 15.1285 12.8938 15.3211Z" fill="black"/>
</svg>
